<svg width="674" height="73" viewBox="0 0 674 73" fill="none" xmlns="http://www.w3.org/2000/svg">
<g filter="url(#filter0_d_1416_8641)">
<path d="M115.603 0H9.39718C6.4164 0 4 1.76984 4 3.95306V60.0469C4 62.2302 6.4164 64 9.39718 64H115.603C118.584 64 121 62.2302 121 60.0469V3.95306C121 1.76984 118.584 0 115.603 0Z" fill="#256386"/>
<path d="M60.2387 50.0298V52.0142H26.3984V50.0139L60.2387 50.0298Z" fill="white"/>
<path d="M94.2549 49.7523V51.726H60.0674V49.7365L94.2549 49.7523Z" fill="white"/>
<path d="M36.68 39.3C34.98 39.3 33.46 38.96 32.12 38.28C30.78 37.6 29.72 36.62 28.94 35.34C28.16 34.06 27.77 32.53 27.77 30.75C27.77 29.07 28.01 27.52 28.49 26.1C28.97 24.66 29.67 23.4 30.59 22.32C31.51 21.24 32.63 20.4 33.95 19.8C35.29 19.2 36.82 18.9 38.54 18.9C40.02 18.9 41.34 19.15 42.5 19.65C43.66 20.15 44.61 20.88 45.35 21.84C46.09 22.78 46.58 23.95 46.82 25.35L41.87 26.46C41.75 25.26 41.41 24.38 40.85 23.82C40.29 23.24 39.47 22.95 38.39 22.95C37.47 22.95 36.67 23.2 35.99 23.7C35.31 24.18 34.74 24.81 34.28 25.59C33.82 26.37 33.48 27.22 33.26 28.14C33.06 29.06 32.96 29.96 32.96 30.84C32.96 31.76 33.12 32.55 33.44 33.21C33.76 33.85 34.22 34.35 34.82 34.71C35.44 35.07 36.17 35.25 37.01 35.25C38.03 35.25 38.83 34.99 39.41 34.47C39.99 33.93 40.48 33.23 40.88 32.37L45.5 34.17C44.64 35.75 43.5 37 42.08 37.92C40.66 38.84 38.86 39.3 36.68 39.3ZM49.5364 39.24C48.6964 39.24 48.0164 39.05 47.4964 38.67C46.9964 38.27 46.7464 37.7 46.7464 36.96C46.7464 36.02 47.0264 35.27 47.5864 34.71C48.1464 34.13 48.9064 33.84 49.8664 33.84C50.7064 33.84 51.3764 34.04 51.8764 34.44C52.3964 34.84 52.6564 35.41 52.6564 36.15C52.6564 37.09 52.3764 37.84 51.8164 38.4C51.2764 38.96 50.5164 39.24 49.5364 39.24ZM61.6604 35.01H71.6504L70.7204 39H55.5704L60.1604 19.2H65.3204L61.6604 35.01ZM76.5188 39.24C75.6788 39.24 74.9988 39.05 74.4788 38.67C73.9788 38.27 73.7288 37.7 73.7288 36.96C73.7288 36.02 74.0088 35.27 74.5688 34.71C75.1288 34.13 75.8888 33.84 76.8488 33.84C77.6888 33.84 78.3588 34.04 78.8588 34.44C79.3788 34.84 79.6388 35.41 79.6388 36.15C79.6388 37.09 79.3588 37.84 78.7988 38.4C78.2588 38.96 77.4988 39.24 76.5188 39.24ZM81.1273 39L92.5873 19.2H98.8273L101.047 39H96.1573L95.7673 34.35H89.0173L86.4973 39H81.1273ZM90.8773 30.84H95.5873L94.9873 23.16L90.8773 30.84Z" fill="white"/>
</g>
<path d="M160.629 37.4668L160.355 39H153.041L153.305 37.4668H160.629ZM155.893 24.7812L153.422 39H151.576L154.047 24.7812H155.893ZM160.795 30.8945L160.531 32.4277H154.174L154.447 30.8945H160.795ZM162.729 24.7812L162.455 26.3242H155.238L155.512 24.7812H162.729ZM165.541 30.7969L164.115 39H162.348L164.184 28.4336H165.854L165.541 30.7969ZM164.721 33.3164L163.998 33.2969C164.089 32.6654 164.255 32.0469 164.496 31.4414C164.743 30.8294 165.066 30.2793 165.463 29.791C165.867 29.3027 166.345 28.9186 166.898 28.6387C167.458 28.3522 168.096 28.2188 168.812 28.2383C169.379 28.2513 169.851 28.362 170.229 28.5703C170.613 28.7721 170.912 29.0488 171.127 29.4004C171.342 29.752 171.485 30.1589 171.557 30.6211C171.628 31.0768 171.635 31.5618 171.576 32.0762L170.424 39H168.646L169.818 32.0469C169.864 31.6237 169.848 31.2428 169.77 30.9043C169.698 30.5592 169.535 30.2858 169.281 30.084C169.034 29.8757 168.676 29.765 168.207 29.752C167.712 29.7389 167.266 29.8333 166.869 30.0352C166.472 30.237 166.124 30.5137 165.824 30.8652C165.531 31.2103 165.29 31.5977 165.102 32.0273C164.919 32.4505 164.792 32.8802 164.721 33.3164ZM182.514 24L179.906 39H178.139L180.736 24H182.514ZM189.105 37.1934L189.984 31.7344C190.03 31.3307 189.991 30.9759 189.867 30.6699C189.75 30.3639 189.551 30.1263 189.271 29.957C188.998 29.7878 188.653 29.6966 188.236 29.6836C187.872 29.6771 187.514 29.7357 187.162 29.8594C186.817 29.9831 186.518 30.1686 186.264 30.416C186.01 30.6634 185.844 30.9759 185.766 31.3535L184.008 31.3633C184.053 30.8359 184.219 30.377 184.506 29.9863C184.792 29.5892 185.15 29.2604 185.58 29C186.01 28.7331 186.472 28.5378 186.967 28.4141C187.462 28.2839 187.943 28.222 188.412 28.2285C189.122 28.2415 189.737 28.3945 190.258 28.6875C190.785 28.974 191.182 29.3776 191.449 29.8984C191.716 30.4193 191.814 31.0443 191.742 31.7734L190.932 36.6953C190.873 37.0534 190.837 37.4147 190.824 37.7793C190.818 38.1374 190.86 38.4889 190.951 38.834L190.932 39L189.145 39.0098C189.073 38.7103 189.037 38.4076 189.037 38.1016C189.044 37.7956 189.066 37.4928 189.105 37.1934ZM190.189 32.5938L189.984 33.8633L188.314 33.8535C187.963 33.8535 187.592 33.8796 187.201 33.9316C186.811 33.9837 186.439 34.0814 186.088 34.2246C185.736 34.3678 185.44 34.5762 185.199 34.8496C184.958 35.1165 184.812 35.4648 184.76 35.8945C184.721 36.2461 184.763 36.5521 184.887 36.8125C185.017 37.0664 185.212 37.265 185.473 37.4082C185.733 37.5514 186.036 37.6263 186.381 37.6328C186.83 37.6393 187.273 37.5514 187.709 37.3691C188.145 37.1868 188.526 36.9264 188.852 36.5879C189.177 36.2493 189.402 35.8587 189.525 35.416L190.17 36.2852C190.046 36.7148 189.844 37.112 189.564 37.4766C189.285 37.8346 188.952 38.1439 188.568 38.4043C188.191 38.6647 187.784 38.8665 187.348 39.0098C186.911 39.153 186.475 39.2214 186.039 39.2148C185.447 39.2018 184.91 39.0684 184.428 38.8145C183.952 38.5605 183.575 38.2057 183.295 37.75C183.021 37.2878 182.904 36.7507 182.943 36.1387C182.982 35.4681 183.158 34.9049 183.471 34.4492C183.783 33.9935 184.184 33.6289 184.672 33.3555C185.167 33.082 185.707 32.8867 186.293 32.7695C186.879 32.6458 187.458 32.584 188.031 32.584L190.189 32.5938ZM202.68 39.1953C201.957 39.1823 201.329 39.0391 200.795 38.7656C200.268 38.4857 199.835 38.1113 199.496 37.6426C199.164 37.1673 198.926 36.627 198.783 36.0215C198.64 35.416 198.598 34.7812 198.656 34.1172L198.695 33.6973C198.76 33.0202 198.926 32.3561 199.193 31.7051C199.46 31.0475 199.815 30.4551 200.258 29.9277C200.707 29.4004 201.234 28.9837 201.84 28.6777C202.452 28.3652 203.129 28.2188 203.871 28.2383C204.607 28.2513 205.219 28.4076 205.707 28.707C206.195 29.0065 206.576 29.4036 206.85 29.8984C207.13 30.3867 207.312 30.9368 207.396 31.5488C207.481 32.1543 207.488 32.776 207.416 33.4141L207.309 34.2246H199.643L199.877 32.75L205.727 32.7598L205.756 32.6035C205.821 32.1348 205.795 31.6823 205.678 31.2461C205.561 30.8099 205.346 30.4518 205.033 30.1719C204.727 29.8854 204.314 29.7357 203.793 29.7227C203.253 29.7031 202.784 29.8138 202.387 30.0547C201.99 30.2891 201.658 30.6081 201.391 31.0117C201.124 31.4089 200.912 31.8451 200.756 32.3203C200.606 32.7891 200.502 33.248 200.443 33.6973L200.404 34.1074C200.365 34.5241 200.378 34.944 200.443 35.3672C200.508 35.7904 200.632 36.1777 200.814 36.5293C201.003 36.8743 201.264 37.1576 201.596 37.3789C201.928 37.5938 202.338 37.7077 202.826 37.7207C203.419 37.7337 203.949 37.6068 204.418 37.3398C204.893 37.0664 205.326 36.7214 205.717 36.3047L206.723 37.1641C206.417 37.6133 206.052 37.9909 205.629 38.2969C205.206 38.6029 204.743 38.8307 204.242 38.9805C203.741 39.1302 203.22 39.2018 202.68 39.1953ZM215.336 36.8418L217.562 24H219.34L216.732 39H215.121L215.336 36.8418ZM208.969 33.9121L208.988 33.707C209.073 33.056 209.229 32.4049 209.457 31.7539C209.691 31.1029 210.007 30.5072 210.404 29.9668C210.801 29.4264 211.283 28.9967 211.85 28.6777C212.416 28.3587 213.077 28.209 213.832 28.2285C214.509 28.248 215.076 28.4076 215.531 28.707C215.987 29.0065 216.345 29.4036 216.605 29.8984C216.872 30.3867 217.051 30.9238 217.143 31.5098C217.24 32.0957 217.27 32.6849 217.23 33.2773L217.123 34.1758C217.012 34.8073 216.83 35.4258 216.576 36.0312C216.322 36.6367 215.993 37.1836 215.59 37.6719C215.193 38.1536 214.714 38.5345 214.154 38.8145C213.601 39.0944 212.966 39.2246 212.25 39.2051C211.56 39.179 210.987 39 210.531 38.668C210.082 38.3359 209.73 37.9095 209.477 37.3887C209.229 36.8613 209.066 36.2949 208.988 35.6895C208.917 35.0775 208.91 34.485 208.969 33.9121ZM210.785 33.6875L210.766 33.8926C210.72 34.2832 210.704 34.6966 210.717 35.1328C210.736 35.5625 210.811 35.9694 210.941 36.3535C211.072 36.7311 211.283 37.0436 211.576 37.291C211.869 37.5319 212.266 37.6621 212.768 37.6816C213.301 37.6947 213.796 37.5742 214.252 37.3203C214.708 37.0664 215.098 36.7279 215.424 36.3047C215.749 35.8815 215.984 35.4225 216.127 34.9277L216.508 32.5547C216.527 32.1966 216.485 31.8548 216.381 31.5293C216.277 31.1973 216.12 30.901 215.912 30.6406C215.71 30.3802 215.46 30.1719 215.16 30.0156C214.867 29.8529 214.538 29.7682 214.174 29.7617C213.627 29.7422 213.155 29.8496 212.758 30.084C212.361 30.3118 212.025 30.6211 211.752 31.0117C211.485 31.3958 211.273 31.8223 211.117 32.291C210.961 32.7598 210.85 33.2253 210.785 33.6875ZM226.156 36.4609L227.543 28.4336H229.32L227.484 39H225.795L226.156 36.4609ZM226.82 34.332L227.543 34.3027C227.458 34.9668 227.309 35.5983 227.094 36.1973C226.879 36.7897 226.586 37.3171 226.215 37.7793C225.85 38.235 225.395 38.5931 224.848 38.8535C224.307 39.1074 223.666 39.2246 222.924 39.2051C222.344 39.1855 221.859 39.0684 221.469 38.8535C221.085 38.6387 220.782 38.349 220.561 37.9844C220.339 37.6198 220.193 37.2031 220.121 36.7344C220.049 36.2656 220.04 35.7708 220.092 35.25L221.234 28.4336H223.002L221.859 35.2793C221.833 35.5658 221.83 35.849 221.85 36.1289C221.869 36.4023 221.928 36.653 222.025 36.8809C222.123 37.1087 222.273 37.2943 222.475 37.4375C222.683 37.5742 222.956 37.6491 223.295 37.6621C223.998 37.6882 224.594 37.5579 225.082 37.2715C225.57 36.9785 225.958 36.5749 226.244 36.0605C226.531 35.5462 226.723 34.9701 226.82 34.332ZM234.545 37.7207C234.975 37.7272 235.375 37.6458 235.746 37.4766C236.117 37.3073 236.433 37.0664 236.693 36.7539C236.954 36.4414 237.139 36.0801 237.25 35.6699L238.93 35.6602C238.826 36.3698 238.549 36.9915 238.1 37.5254C237.657 38.0592 237.113 38.4759 236.469 38.7754C235.831 39.0684 235.163 39.2083 234.467 39.1953C233.725 39.1823 233.093 39.0293 232.572 38.7363C232.058 38.4368 231.645 38.0397 231.332 37.5449C231.02 37.0501 230.805 36.4935 230.688 35.875C230.57 35.25 230.544 34.6087 230.609 33.9512L230.648 33.5312C230.727 32.8216 230.899 32.1478 231.166 31.5098C231.433 30.8652 231.788 30.2956 232.23 29.8008C232.68 29.2995 233.21 28.9089 233.822 28.6289C234.434 28.349 235.121 28.2188 235.883 28.2383C236.625 28.2513 237.27 28.4271 237.816 28.7656C238.363 29.0977 238.786 29.5501 239.086 30.123C239.385 30.696 239.535 31.347 239.535 32.0762L237.875 32.0664C237.868 31.6497 237.787 31.2656 237.631 30.9141C237.475 30.5625 237.243 30.2793 236.938 30.0645C236.632 29.8496 236.254 29.7324 235.805 29.7129C235.264 29.6999 234.792 29.8008 234.389 30.0156C233.992 30.2305 233.653 30.5267 233.373 30.9043C233.1 31.2754 232.882 31.6888 232.719 32.1445C232.562 32.6003 232.455 33.0625 232.396 33.5312L232.348 33.9414C232.309 34.3581 232.302 34.7845 232.328 35.2207C232.361 35.6569 232.452 36.0638 232.602 36.4414C232.751 36.8125 232.982 37.1152 233.295 37.3496C233.607 37.584 234.024 37.7077 234.545 37.7207ZM246.684 37.1934L247.562 31.7344C247.608 31.3307 247.569 30.9759 247.445 30.6699C247.328 30.3639 247.13 30.1263 246.85 29.957C246.576 29.7878 246.231 29.6966 245.814 29.6836C245.45 29.6771 245.092 29.7357 244.74 29.8594C244.395 29.9831 244.096 30.1686 243.842 30.416C243.588 30.6634 243.422 30.9759 243.344 31.3535L241.586 31.3633C241.632 30.8359 241.798 30.377 242.084 29.9863C242.37 29.5892 242.729 29.2604 243.158 29C243.588 28.7331 244.05 28.5378 244.545 28.4141C245.04 28.2839 245.521 28.222 245.99 28.2285C246.7 28.2415 247.315 28.3945 247.836 28.6875C248.363 28.974 248.76 29.3776 249.027 29.8984C249.294 30.4193 249.392 31.0443 249.32 31.7734L248.51 36.6953C248.451 37.0534 248.415 37.4147 248.402 37.7793C248.396 38.1374 248.438 38.4889 248.529 38.834L248.51 39L246.723 39.0098C246.651 38.7103 246.615 38.4076 246.615 38.1016C246.622 37.7956 246.645 37.4928 246.684 37.1934ZM247.768 32.5938L247.562 33.8633L245.893 33.8535C245.541 33.8535 245.17 33.8796 244.779 33.9316C244.389 33.9837 244.018 34.0814 243.666 34.2246C243.314 34.3678 243.018 34.5762 242.777 34.8496C242.536 35.1165 242.39 35.4648 242.338 35.8945C242.299 36.2461 242.341 36.5521 242.465 36.8125C242.595 37.0664 242.79 37.265 243.051 37.4082C243.311 37.5514 243.614 37.6263 243.959 37.6328C244.408 37.6393 244.851 37.5514 245.287 37.3691C245.723 37.1868 246.104 36.9264 246.43 36.5879C246.755 36.2493 246.98 35.8587 247.104 35.416L247.748 36.2852C247.624 36.7148 247.423 37.112 247.143 37.4766C246.863 37.8346 246.531 38.1439 246.146 38.4043C245.769 38.6647 245.362 38.8665 244.926 39.0098C244.49 39.153 244.053 39.2214 243.617 39.2148C243.025 39.2018 242.488 39.0684 242.006 38.8145C241.531 38.5605 241.153 38.2057 240.873 37.75C240.6 37.2878 240.482 36.7507 240.521 36.1387C240.561 35.4681 240.736 34.9049 241.049 34.4492C241.361 33.9935 241.762 33.6289 242.25 33.3555C242.745 33.082 243.285 32.8867 243.871 32.7695C244.457 32.6458 245.036 32.584 245.609 32.584L247.768 32.5938ZM255.268 37.7207C255.697 37.7272 256.098 37.6458 256.469 37.4766C256.84 37.3073 257.156 37.0664 257.416 36.7539C257.676 36.4414 257.862 36.0801 257.973 35.6699L259.652 35.6602C259.548 36.3698 259.271 36.9915 258.822 37.5254C258.38 38.0592 257.836 38.4759 257.191 38.7754C256.553 39.0684 255.886 39.2083 255.189 39.1953C254.447 39.1823 253.816 39.0293 253.295 38.7363C252.781 38.4368 252.367 38.0397 252.055 37.5449C251.742 37.0501 251.527 36.4935 251.41 35.875C251.293 35.25 251.267 34.6087 251.332 33.9512L251.371 33.5312C251.449 32.8216 251.622 32.1478 251.889 31.5098C252.156 30.8652 252.51 30.2956 252.953 29.8008C253.402 29.2995 253.933 28.9089 254.545 28.6289C255.157 28.349 255.844 28.2188 256.605 28.2383C257.348 28.2513 257.992 28.4271 258.539 28.7656C259.086 29.0977 259.509 29.5501 259.809 30.123C260.108 30.696 260.258 31.347 260.258 32.0762L258.598 32.0664C258.591 31.6497 258.51 31.2656 258.354 30.9141C258.197 30.5625 257.966 30.2793 257.66 30.0645C257.354 29.8496 256.977 29.7324 256.527 29.7129C255.987 29.6999 255.515 29.8008 255.111 30.0156C254.714 30.2305 254.376 30.5267 254.096 30.9043C253.822 31.2754 253.604 31.6888 253.441 32.1445C253.285 32.6003 253.178 33.0625 253.119 33.5312L253.07 33.9414C253.031 34.3581 253.025 34.7845 253.051 35.2207C253.083 35.6569 253.174 36.0638 253.324 36.4414C253.474 36.8125 253.705 37.1152 254.018 37.3496C254.33 37.584 254.747 37.7077 255.268 37.7207ZM264.77 28.4336L262.934 39H261.166L263.002 28.4336H264.77ZM263.354 25.6602C263.354 25.3542 263.448 25.1003 263.637 24.8984C263.832 24.6901 264.083 24.5827 264.389 24.5762C264.695 24.5697 264.945 24.6641 265.141 24.8594C265.342 25.0547 265.44 25.3021 265.434 25.6016C265.434 25.901 265.333 26.1517 265.131 26.3535C264.936 26.5488 264.688 26.6497 264.389 26.6562C264.089 26.6628 263.842 26.5749 263.646 26.3926C263.451 26.2038 263.354 25.9596 263.354 25.6602ZM266.205 33.8926L266.234 33.668C266.312 32.9583 266.488 32.2747 266.762 31.6172C267.042 30.9596 267.41 30.3737 267.865 29.8594C268.321 29.3451 268.861 28.9414 269.486 28.6484C270.111 28.3555 270.808 28.2188 271.576 28.2383C272.318 28.2513 272.953 28.4108 273.48 28.7168C274.014 29.0228 274.444 29.4297 274.77 29.9375C275.102 30.4388 275.333 31.0052 275.463 31.6367C275.593 32.2682 275.626 32.9193 275.561 33.5898L275.541 33.8145C275.456 34.5241 275.274 35.2044 274.994 35.8555C274.714 36.5065 274.343 37.0859 273.881 37.5938C273.425 38.1016 272.885 38.502 272.26 38.7949C271.635 39.0814 270.941 39.2148 270.18 39.1953C269.444 39.1823 268.809 39.026 268.275 38.7266C267.748 38.4206 267.322 38.0169 266.996 37.5156C266.671 37.0143 266.443 36.4512 266.312 35.8262C266.182 35.2012 266.146 34.5566 266.205 33.8926ZM267.992 33.668L267.973 33.9023C267.927 34.3125 267.924 34.7389 267.963 35.1816C268.008 35.6243 268.113 36.0345 268.275 36.4121C268.445 36.7897 268.689 37.099 269.008 37.3398C269.327 37.5807 269.74 37.7077 270.248 37.7207C270.788 37.7337 271.264 37.6296 271.674 37.4082C272.084 37.1803 272.432 36.8743 272.719 36.4902C273.012 36.1061 273.243 35.6797 273.412 35.2109C273.588 34.7422 273.705 34.2767 273.764 33.8145L273.783 33.5898C273.829 33.1797 273.829 32.7533 273.783 32.3105C273.744 31.8613 273.64 31.4447 273.471 31.0605C273.308 30.6699 273.067 30.3542 272.748 30.1133C272.429 29.8659 272.016 29.7357 271.508 29.7227C270.967 29.7031 270.489 29.8105 270.072 30.0449C269.662 30.2728 269.314 30.582 269.027 30.9727C268.741 31.3633 268.51 31.7962 268.334 32.2715C268.165 32.7402 268.051 33.2057 267.992 33.668ZM280.014 30.7969L278.588 39H276.82L278.656 28.4336H280.326L280.014 30.7969ZM279.193 33.3164L278.471 33.2969C278.562 32.6654 278.728 32.0469 278.969 31.4414C279.216 30.8294 279.538 30.2793 279.936 29.791C280.339 29.3027 280.818 28.9186 281.371 28.6387C281.931 28.3522 282.569 28.2188 283.285 28.2383C283.852 28.2513 284.324 28.362 284.701 28.5703C285.085 28.7721 285.385 29.0488 285.6 29.4004C285.814 29.752 285.958 30.1589 286.029 30.6211C286.101 31.0768 286.107 31.5618 286.049 32.0762L284.896 39H283.119L284.291 32.0469C284.337 31.6237 284.32 31.2428 284.242 30.9043C284.171 30.5592 284.008 30.2858 283.754 30.084C283.507 29.8757 283.148 29.765 282.68 29.752C282.185 29.7389 281.739 29.8333 281.342 30.0352C280.945 30.237 280.596 30.5137 280.297 30.8652C280.004 31.2103 279.763 31.5977 279.574 32.0273C279.392 32.4505 279.265 32.8802 279.193 33.3164ZM296.938 39.1953C296.215 39.1823 295.587 39.0391 295.053 38.7656C294.525 38.4857 294.092 38.1113 293.754 37.6426C293.422 37.1673 293.184 36.627 293.041 36.0215C292.898 35.416 292.855 34.7812 292.914 34.1172L292.953 33.6973C293.018 33.0202 293.184 32.3561 293.451 31.7051C293.718 31.0475 294.073 30.4551 294.516 29.9277C294.965 29.4004 295.492 28.9837 296.098 28.6777C296.71 28.3652 297.387 28.2188 298.129 28.2383C298.865 28.2513 299.477 28.4076 299.965 28.707C300.453 29.0065 300.834 29.4036 301.107 29.8984C301.387 30.3867 301.57 30.9368 301.654 31.5488C301.739 32.1543 301.745 32.776 301.674 33.4141L301.566 34.2246H293.9L294.135 32.75L299.984 32.7598L300.014 32.6035C300.079 32.1348 300.053 31.6823 299.936 31.2461C299.818 30.8099 299.604 30.4518 299.291 30.1719C298.985 29.8854 298.572 29.7357 298.051 29.7227C297.51 29.7031 297.042 29.8138 296.645 30.0547C296.247 30.2891 295.915 30.6081 295.648 31.0117C295.382 31.4089 295.17 31.8451 295.014 32.3203C294.864 32.7891 294.76 33.248 294.701 33.6973L294.662 34.1074C294.623 34.5241 294.636 34.944 294.701 35.3672C294.766 35.7904 294.89 36.1777 295.072 36.5293C295.261 36.8743 295.521 37.1576 295.854 37.3789C296.186 37.5938 296.596 37.7077 297.084 37.7207C297.676 37.7337 298.207 37.6068 298.676 37.3398C299.151 37.0664 299.584 36.7214 299.975 36.3047L300.98 37.1641C300.674 37.6133 300.31 37.9909 299.887 38.2969C299.464 38.6029 299.001 38.8307 298.5 38.9805C297.999 39.1302 297.478 39.2018 296.938 39.1953ZM309.281 36.1387C309.34 35.735 309.265 35.4193 309.057 35.1914C308.855 34.9635 308.588 34.791 308.256 34.6738C307.93 34.5501 307.611 34.4492 307.299 34.3711C306.908 34.2734 306.514 34.153 306.117 34.0098C305.72 33.8665 305.355 33.6842 305.023 33.4629C304.698 33.235 304.438 32.9551 304.242 32.623C304.053 32.2845 303.969 31.8743 303.988 31.3926C304.014 30.8717 304.151 30.4128 304.398 30.0156C304.652 29.6185 304.978 29.2865 305.375 29.0195C305.779 28.7526 306.218 28.554 306.693 28.4238C307.169 28.2936 307.641 28.2318 308.109 28.2383C308.773 28.2513 309.376 28.388 309.916 28.6484C310.463 28.9089 310.896 29.2832 311.215 29.7715C311.534 30.2598 311.684 30.8522 311.664 31.5488L309.916 31.5391C309.929 31.168 309.854 30.849 309.691 30.582C309.529 30.3151 309.304 30.11 309.018 29.9668C308.731 29.8171 308.406 29.7389 308.041 29.7324C307.696 29.7259 307.357 29.7812 307.025 29.8984C306.693 30.0091 306.41 30.1849 306.176 30.4258C305.941 30.6602 305.798 30.9661 305.746 31.3438C305.707 31.6237 305.749 31.8548 305.873 32.0371C305.997 32.2129 306.166 32.3561 306.381 32.4668C306.602 32.571 306.833 32.6589 307.074 32.7305C307.322 32.7956 307.546 32.8542 307.748 32.9062C308.282 33.056 308.809 33.2448 309.33 33.4727C309.851 33.7005 310.274 34.0163 310.6 34.4199C310.925 34.8171 311.072 35.3411 311.039 35.9922C311.013 36.5456 310.867 37.0273 310.6 37.4375C310.339 37.8411 310.001 38.1764 309.584 38.4434C309.174 38.7038 308.721 38.8958 308.227 39.0195C307.732 39.1432 307.237 39.2018 306.742 39.1953C306.059 39.1823 305.421 39.0423 304.828 38.7754C304.242 38.502 303.773 38.1113 303.422 37.6035C303.07 37.0892 302.904 36.4642 302.924 35.7285L304.691 35.7383C304.691 36.1615 304.779 36.5195 304.955 36.8125C305.137 37.099 305.388 37.3171 305.707 37.4668C306.026 37.6165 306.391 37.6947 306.801 37.7012C307.146 37.7077 307.497 37.6621 307.855 37.5645C308.22 37.4668 308.533 37.304 308.793 37.0762C309.06 36.8418 309.223 36.5293 309.281 36.1387ZM318.92 28.4336L318.676 29.8203H313.119L313.363 28.4336H318.92ZM315.688 25.8652H317.445L315.658 36.4023C315.639 36.6302 315.645 36.8353 315.678 37.0176C315.71 37.1999 315.788 37.3464 315.912 37.457C316.036 37.5612 316.225 37.6165 316.479 37.623C316.622 37.623 316.762 37.6133 316.898 37.5938C317.042 37.5677 317.185 37.5449 317.328 37.5254L317.201 39.0098C316.993 39.0684 316.778 39.1107 316.557 39.1367C316.342 39.1693 316.127 39.1823 315.912 39.1758C315.372 39.1693 314.949 39.0326 314.643 38.7656C314.337 38.4987 314.128 38.1536 314.018 37.7305C313.907 37.3073 313.874 36.8548 313.92 36.373L315.688 25.8652ZM325.512 37.1934L326.391 31.7344C326.436 31.3307 326.397 30.9759 326.273 30.6699C326.156 30.3639 325.958 30.1263 325.678 29.957C325.404 29.7878 325.059 29.6966 324.643 29.6836C324.278 29.6771 323.92 29.7357 323.568 29.8594C323.223 29.9831 322.924 30.1686 322.67 30.416C322.416 30.6634 322.25 30.9759 322.172 31.3535L320.414 31.3633C320.46 30.8359 320.626 30.377 320.912 29.9863C321.199 29.5892 321.557 29.2604 321.986 29C322.416 28.7331 322.878 28.5378 323.373 28.4141C323.868 28.2839 324.35 28.222 324.818 28.2285C325.528 28.2415 326.143 28.3945 326.664 28.6875C327.191 28.974 327.589 29.3776 327.855 29.8984C328.122 30.4193 328.22 31.0443 328.148 31.7734L327.338 36.6953C327.279 37.0534 327.243 37.4147 327.23 37.7793C327.224 38.1374 327.266 38.4889 327.357 38.834L327.338 39L325.551 39.0098C325.479 38.7103 325.443 38.4076 325.443 38.1016C325.45 37.7956 325.473 37.4928 325.512 37.1934ZM326.596 32.5938L326.391 33.8633L324.721 33.8535C324.369 33.8535 323.998 33.8796 323.607 33.9316C323.217 33.9837 322.846 34.0814 322.494 34.2246C322.143 34.3678 321.846 34.5762 321.605 34.8496C321.365 35.1165 321.218 35.4648 321.166 35.8945C321.127 36.2461 321.169 36.5521 321.293 36.8125C321.423 37.0664 321.618 37.265 321.879 37.4082C322.139 37.5514 322.442 37.6263 322.787 37.6328C323.236 37.6393 323.679 37.5514 324.115 37.3691C324.551 37.1868 324.932 36.9264 325.258 36.5879C325.583 36.2493 325.808 35.8587 325.932 35.416L326.576 36.2852C326.452 36.7148 326.251 37.112 325.971 37.4766C325.691 37.8346 325.359 38.1439 324.975 38.4043C324.597 38.6647 324.19 38.8665 323.754 39.0098C323.318 39.153 322.882 39.2214 322.445 39.2148C321.853 39.2018 321.316 39.0684 320.834 38.8145C320.359 38.5605 319.981 38.2057 319.701 37.75C319.428 37.2878 319.311 36.7507 319.35 36.1387C319.389 35.4681 319.564 34.9049 319.877 34.4492C320.189 33.9935 320.59 33.6289 321.078 33.3555C321.573 33.082 322.113 32.8867 322.699 32.7695C323.285 32.6458 323.865 32.584 324.438 32.584L326.596 32.5938ZM339.086 39.1953C338.363 39.1823 337.735 39.0391 337.201 38.7656C336.674 38.4857 336.241 38.1113 335.902 37.6426C335.57 37.1673 335.333 36.627 335.189 36.0215C335.046 35.416 335.004 34.7812 335.062 34.1172L335.102 33.6973C335.167 33.0202 335.333 32.3561 335.6 31.7051C335.867 31.0475 336.221 30.4551 336.664 29.9277C337.113 29.4004 337.641 28.9837 338.246 28.6777C338.858 28.3652 339.535 28.2188 340.277 28.2383C341.013 28.2513 341.625 28.4076 342.113 28.707C342.602 29.0065 342.982 29.4036 343.256 29.8984C343.536 30.3867 343.718 30.9368 343.803 31.5488C343.887 32.1543 343.894 32.776 343.822 33.4141L343.715 34.2246H336.049L336.283 32.75L342.133 32.7598L342.162 32.6035C342.227 32.1348 342.201 31.6823 342.084 31.2461C341.967 30.8099 341.752 30.4518 341.439 30.1719C341.133 29.8854 340.72 29.7357 340.199 29.7227C339.659 29.7031 339.19 29.8138 338.793 30.0547C338.396 30.2891 338.064 30.6081 337.797 31.0117C337.53 31.4089 337.318 31.8451 337.162 32.3203C337.012 32.7891 336.908 33.248 336.85 33.6973L336.811 34.1074C336.771 34.5241 336.785 34.944 336.85 35.3672C336.915 35.7904 337.038 36.1777 337.221 36.5293C337.41 36.8743 337.67 37.1576 338.002 37.3789C338.334 37.5938 338.744 37.7077 339.232 37.7207C339.825 37.7337 340.355 37.6068 340.824 37.3398C341.299 37.0664 341.732 36.7214 342.123 36.3047L343.129 37.1641C342.823 37.6133 342.458 37.9909 342.035 38.2969C341.612 38.6029 341.15 38.8307 340.648 38.9805C340.147 39.1302 339.626 39.2018 339.086 39.1953ZM349.428 24L346.82 39H345.053L347.65 24H349.428ZM357.182 39H355.414L357.406 27.3301C357.497 26.6204 357.706 25.9987 358.031 25.4648C358.357 24.9245 358.79 24.5046 359.33 24.2051C359.87 23.9056 360.512 23.7591 361.254 23.7656C361.469 23.7721 361.684 23.7917 361.898 23.8242C362.113 23.8503 362.325 23.8861 362.533 23.9316L362.318 25.416C362.169 25.3835 362.012 25.3574 361.85 25.3379C361.693 25.3184 361.537 25.3053 361.381 25.2988C360.964 25.2988 360.603 25.3867 360.297 25.5625C359.991 25.7318 359.743 25.9694 359.555 26.2754C359.372 26.5749 359.249 26.9232 359.184 27.3203L357.182 39ZM361.195 28.4336L360.951 29.8203H355.385L355.639 28.4336H361.195ZM368.031 36.4609L369.418 28.4336H371.195L369.359 39H367.67L368.031 36.4609ZM368.695 34.332L369.418 34.3027C369.333 34.9668 369.184 35.5983 368.969 36.1973C368.754 36.7897 368.461 37.3171 368.09 37.7793C367.725 38.235 367.27 38.5931 366.723 38.8535C366.182 39.1074 365.541 39.2246 364.799 39.2051C364.219 39.1855 363.734 39.0684 363.344 38.8535C362.96 38.6387 362.657 38.349 362.436 37.9844C362.214 37.6198 362.068 37.2031 361.996 36.7344C361.924 36.2656 361.915 35.7708 361.967 35.25L363.109 28.4336H364.877L363.734 35.2793C363.708 35.5658 363.705 35.849 363.725 36.1289C363.744 36.4023 363.803 36.653 363.9 36.8809C363.998 37.1087 364.148 37.2943 364.35 37.4375C364.558 37.5742 364.831 37.6491 365.17 37.6621C365.873 37.6882 366.469 37.5579 366.957 37.2715C367.445 36.9785 367.833 36.5749 368.119 36.0605C368.406 35.5462 368.598 34.9701 368.695 34.332ZM378.158 28.4336L377.914 29.8203H372.357L372.602 28.4336H378.158ZM374.926 25.8652H376.684L374.896 36.4023C374.877 36.6302 374.883 36.8353 374.916 37.0176C374.949 37.1999 375.027 37.3464 375.15 37.457C375.274 37.5612 375.463 37.6165 375.717 37.623C375.86 37.623 376 37.6133 376.137 37.5938C376.28 37.5677 376.423 37.5449 376.566 37.5254L376.439 39.0098C376.231 39.0684 376.016 39.1107 375.795 39.1367C375.58 39.1693 375.365 39.1823 375.15 39.1758C374.61 39.1693 374.187 39.0326 373.881 38.7656C373.575 38.4987 373.367 38.1536 373.256 37.7305C373.145 37.3073 373.113 36.8548 373.158 36.373L374.926 25.8652ZM385.082 36.4609L386.469 28.4336H388.246L386.41 39H384.721L385.082 36.4609ZM385.746 34.332L386.469 34.3027C386.384 34.9668 386.234 35.5983 386.02 36.1973C385.805 36.7897 385.512 37.3171 385.141 37.7793C384.776 38.235 384.32 38.5931 383.773 38.8535C383.233 39.1074 382.592 39.2246 381.85 39.2051C381.27 39.1855 380.785 39.0684 380.395 38.8535C380.01 38.6387 379.708 38.349 379.486 37.9844C379.265 37.6198 379.118 37.2031 379.047 36.7344C378.975 36.2656 378.965 35.7708 379.018 35.25L380.16 28.4336H381.928L380.785 35.2793C380.759 35.5658 380.756 35.849 380.775 36.1289C380.795 36.4023 380.854 36.653 380.951 36.8809C381.049 37.1087 381.199 37.2943 381.4 37.4375C381.609 37.5742 381.882 37.6491 382.221 37.6621C382.924 37.6882 383.52 37.5579 384.008 37.2715C384.496 36.9785 384.883 36.5749 385.17 36.0605C385.456 35.5462 385.648 34.9701 385.746 34.332ZM392.367 30.1719L390.834 39H389.066L390.902 28.4336H392.621L392.367 30.1719ZM395.795 28.3457L395.629 30.0449C395.492 30.0189 395.352 29.9961 395.209 29.9766C395.072 29.957 394.936 29.9473 394.799 29.9473C394.376 29.9408 393.995 30.0059 393.656 30.1426C393.324 30.2728 393.028 30.4583 392.768 30.6992C392.514 30.9401 392.296 31.2233 392.113 31.5488C391.938 31.8743 391.798 32.2259 391.693 32.6035L391.137 32.8965C391.208 32.3691 391.326 31.8288 391.488 31.2754C391.658 30.722 391.889 30.2109 392.182 29.7422C392.481 29.2734 392.855 28.8958 393.305 28.6094C393.76 28.3229 394.307 28.1895 394.945 28.209C395.089 28.209 395.229 28.222 395.365 28.248C395.508 28.2741 395.652 28.3066 395.795 28.3457ZM395.912 33.8926L395.941 33.668C396.02 32.9583 396.195 32.2747 396.469 31.6172C396.749 30.9596 397.117 30.3737 397.572 29.8594C398.028 29.3451 398.568 28.9414 399.193 28.6484C399.818 28.3555 400.515 28.2188 401.283 28.2383C402.025 28.2513 402.66 28.4108 403.188 28.7168C403.721 29.0228 404.151 29.4297 404.477 29.9375C404.809 30.4388 405.04 31.0052 405.17 31.6367C405.3 32.2682 405.333 32.9193 405.268 33.5898L405.248 33.8145C405.163 34.5241 404.981 35.2044 404.701 35.8555C404.421 36.5065 404.05 37.0859 403.588 37.5938C403.132 38.1016 402.592 38.502 401.967 38.7949C401.342 39.0814 400.648 39.2148 399.887 39.1953C399.151 39.1823 398.516 39.026 397.982 38.7266C397.455 38.4206 397.029 38.0169 396.703 37.5156C396.378 37.0143 396.15 36.4512 396.02 35.8262C395.889 35.2012 395.854 34.5566 395.912 33.8926ZM397.699 33.668L397.68 33.9023C397.634 34.3125 397.631 34.7389 397.67 35.1816C397.715 35.6243 397.82 36.0345 397.982 36.4121C398.152 36.7897 398.396 37.099 398.715 37.3398C399.034 37.5807 399.447 37.7077 399.955 37.7207C400.495 37.7337 400.971 37.6296 401.381 37.4082C401.791 37.1803 402.139 36.8743 402.426 36.4902C402.719 36.1061 402.95 35.6797 403.119 35.2109C403.295 34.7422 403.412 34.2767 403.471 33.8145L403.49 33.5898C403.536 33.1797 403.536 32.7533 403.49 32.3105C403.451 31.8613 403.347 31.4447 403.178 31.0605C403.015 30.6699 402.774 30.3542 402.455 30.1133C402.136 29.8659 401.723 29.7357 401.215 29.7227C400.674 29.7031 400.196 29.8105 399.779 30.0449C399.369 30.2728 399.021 30.582 398.734 30.9727C398.448 31.3633 398.217 31.7962 398.041 32.2715C397.872 32.7402 397.758 33.2057 397.699 33.668ZM406.732 38.0723C406.732 37.7533 406.833 37.4863 407.035 37.2715C407.243 37.0566 407.507 36.946 407.826 36.9395C408.145 36.9329 408.406 37.0306 408.607 37.2324C408.816 37.4342 408.917 37.6947 408.91 38.0137C408.91 38.3327 408.806 38.5964 408.598 38.8047C408.396 39.013 408.135 39.1204 407.816 39.127C407.504 39.1335 407.243 39.0391 407.035 38.8438C406.827 38.6484 406.726 38.3913 406.732 38.0723Z" fill="#545776"/>
<defs>
<filter id="filter0_d_1416_8641" x="0" y="0" width="125" height="72" filterUnits="userSpaceOnUse" color-interpolation-filters="sRGB">
<feFlood flood-opacity="0" result="BackgroundImageFix"/>
<feColorMatrix in="SourceAlpha" type="matrix" values="0 0 0 0 0 0 0 0 0 0 0 0 0 0 0 0 0 0 127 0" result="hardAlpha"/>
<feOffset dy="4"/>
<feGaussianBlur stdDeviation="2"/>
<feComposite in2="hardAlpha" operator="out"/>
<feColorMatrix type="matrix" values="0 0 0 0 0 0 0 0 0 0 0 0 0 0 0 0 0 0 0.25 0"/>
<feBlend mode="normal" in2="BackgroundImageFix" result="effect1_dropShadow_1416_8641"/>
<feBlend mode="normal" in="SourceGraphic" in2="effect1_dropShadow_1416_8641" result="shape"/>
</filter>
</defs>
</svg>
